<svg version="1.1" xmlns="http://www.w3.org/2000/svg" xmlns:xlink="http://www.w3.org/1999/xlink" width="32.000000pt" height="32.000000pt" viewBox="0,0,256,256"><g fill="#ffffff" fill-rule="nonzero" stroke="none" stroke-width="1" stroke-linecap="butt" stroke-linejoin="miter" stroke-miterlimit="10" stroke-dasharray="" stroke-dashoffset="0" font-family="none" font-weight="none" font-size="none" text-anchor="none" style="mix-blend-mode: normal"><g transform="translate(1.92172,1.87032) scale(8,8)"><g transform="translate(0,32) scale(0.1,-0.1)"><path d="M0,308c0,-7 30,-43 67,-80l67,-68l-69,-70c-55,-55 -67,-72 -57,-82c10,-10 27,2 82,57l70,69l70,-69c55,-55 72,-67 82,-57c10,10 -2,27 -57,82l-69,70l69,70c55,55 67,72 57,82c-10,10 -27,-2 -82,-57l-70,-69l-68,67c-65,65 -92,81 -92,55z"></path></g></g></g></svg>